<?xml version="1.0" standalone="no"?>
<!DOCTYPE svg PUBLIC "-//W3C//DTD SVG 20010904//EN"
 "http://www.w3.org/TR/2001/REC-SVG-20010904/DTD/svg10.dtd">
<svg version="1.0" xmlns="http://www.w3.org/2000/svg"
 width="512.000000pt" height="512.000000pt" viewBox="0 0 512.000000 512.000000"
 preserveAspectRatio="xMidYMid meet">
<metadata>
Created by potrace 1.11, written by Peter Selinger 2001-2013
</metadata>
<g transform="translate(0.000000,512.000000) scale(0.100000,-0.100000)"
fill="#000000" stroke="none">
<path d="M2051 2734 c-45 -32 -70 -134 -32 -134 13 0 20 10 25 32 17 84 102
92 122 12 11 -44 -5 -71 -71 -123 -68 -54 -89 -84 -100 -144 l-7 -37 111 0
111 0 0 25 c0 25 -1 25 -85 25 l-86 0 16 30 c8 16 34 42 58 58 80 56 92 76 92
149 0 60 -2 67 -33 94 -37 33 -84 38 -121 13z"/>
<path d="M3331 2734 c-45 -32 -70 -134 -32 -134 13 0 20 10 25 32 17 84 102
92 122 12 11 -44 -5 -71 -71 -123 -68 -54 -89 -84 -100 -144 l-7 -37 111 0
111 0 0 25 c0 25 -1 25 -85 25 l-86 0 16 30 c8 16 34 42 58 58 80 56 92 76 92
149 0 60 -2 67 -33 94 -37 33 -84 38 -121 13z"/>
<path d="M1840 2710 c-9 -21 -22 -33 -44 -38 -21 -6 -31 -14 -31 -28 0 -15 8
-20 38 -22 l37 -3 0 -140 c0 -132 1 -139 20 -139 19 0 20 7 20 200 0 163 -3
200 -14 200 -7 0 -19 -14 -26 -30z"/>
<path d="M3120 2710 c-9 -21 -22 -33 -44 -38 -21 -6 -31 -14 -31 -28 0 -15 8
-20 38 -22 l37 -3 0 -140 c0 -132 1 -139 20 -139 19 0 20 7 20 200 0 163 -3
200 -14 200 -7 0 -19 -14 -26 -30z"/>
<path d="M1516 2653 c-4 -42 -10 -89 -13 -104 -8 -39 17 -47 56 -18 25 19 36
21 58 13 41 -14 59 -53 48 -100 -17 -67 -97 -86 -123 -29 -12 25 -52 36 -52
14 0 -26 33 -77 56 -88 89 -40 172 32 162 141 -9 85 -66 135 -128 111 -30 -11
-30 -11 -30 22 0 60 6 65 76 65 62 0 64 1 64 25 0 25 -1 25 -84 25 l-83 0 -7
-77z"/>
<path d="M2786 2653 c-4 -42 -10 -89 -13 -104 -8 -39 17 -47 56 -18 25 19 36
21 58 13 41 -14 59 -53 48 -100 -17 -67 -97 -86 -123 -29 -12 25 -52 36 -52
14 0 -26 33 -77 56 -88 89 -40 172 32 162 141 -9 85 -66 135 -128 111 -30 -11
-30 -11 -30 22 0 60 6 65 76 65 62 0 64 1 64 25 0 25 -1 25 -84 25 l-83 0 -7
-77z"/>
<path d="M2419 2566 l41 -74 -40 -71 c-22 -39 -40 -73 -40 -76 0 -3 11 -5 25
-5 20 0 30 11 53 56 l28 56 30 -56 c24 -47 33 -56 57 -56 l27 0 -32 58 c-17
31 -37 65 -44 75 -10 16 -6 29 27 88 21 37 39 71 39 74 0 3 -10 5 -22 5 -17 0
-31 -13 -52 -52 l-29 -52 -26 52 c-22 45 -29 52 -54 52 l-28 0 40 -74z"/>
</g>
</svg>
